<svg width="33" height="25" viewBox="0 0 33 25" fill="none" xmlns="http://www.w3.org/2000/svg">
<path d="M27.4946 2.05213C25.4246 1.10229 23.2047 0.402488 20.8837 0.00168133C20.8414 -0.00605411 20.7992 0.0132772 20.7774 0.0519406C20.492 0.559712 20.1757 1.22214 19.9543 1.74281C17.4579 1.36907 14.9743 1.36907 12.5291 1.74281C12.3076 1.21057 11.9799 0.559712 11.6931 0.0519406C11.6714 0.0145672 11.6291 -0.0047641 11.5869 0.00168133C9.26715 0.401207 7.0473 1.10101 4.97593 2.05213C4.958 2.05987 4.94263 2.07277 4.93243 2.08951C0.721829 8.38005 -0.43163 14.516 0.134219 20.5758C0.136779 20.6055 0.153421 20.6338 0.176465 20.6519C2.9545 22.692 5.6455 23.9305 8.28652 24.7515C8.32879 24.7644 8.37358 24.7489 8.40047 24.7141C9.02521 23.8609 9.58211 22.9614 10.0596 22.0154C10.0878 21.96 10.0609 21.8942 10.0033 21.8723C9.11995 21.5372 8.27884 21.1287 7.46975 20.6648C7.40575 20.6274 7.40063 20.5358 7.4595 20.492C7.62977 20.3644 7.80007 20.2317 7.96265 20.0977C7.99206 20.0732 8.03305 20.068 8.06763 20.0835C13.383 22.5103 19.1375 22.5103 24.3901 20.0835C24.4247 20.0667 24.4657 20.0719 24.4964 20.0964C24.659 20.2304 24.8293 20.3644 25.0008 20.492C25.0597 20.5358 25.0559 20.6274 24.9919 20.6648C24.1828 21.1377 23.3417 21.5372 22.4571 21.871C22.3995 21.893 22.3738 21.96 22.402 22.0154C22.8898 22.96 23.4467 23.8596 24.0599 24.7128C24.0855 24.7489 24.1315 24.7644 24.1738 24.7515C26.8276 23.9305 29.5186 22.692 32.2967 20.6519C32.321 20.6338 32.3364 20.6068 32.3389 20.5771C33.0161 13.5713 31.2046 7.48565 27.5369 2.09079C27.5279 2.07277 27.5126 2.05987 27.4946 2.05213ZM10.8534 16.886C9.25306 16.886 7.93447 15.4168 7.93447 13.6125C7.93447 11.8082 9.22749 10.339 10.8534 10.339C12.492 10.339 13.7978 11.8211 13.7722 13.6125C13.7722 15.4168 12.4792 16.886 10.8534 16.886ZM21.6454 16.886C20.0452 16.886 18.7266 15.4168 18.7266 13.6125C18.7266 11.8082 20.0195 10.339 21.6454 10.339C23.2841 10.339 24.5899 11.8211 24.5643 13.6125C24.5643 15.4168 23.2841 16.886 21.6454 16.886Z" fill="white" fill-opacity="0.82"/>
</svg>
