<svg width="33" height="27" viewBox="0 0 33 27" fill="none" xmlns="http://www.w3.org/2000/svg">
<path d="M29.1537 6.70842C29.1735 6.99474 29.1735 7.28107 29.1735 7.57003C29.1735 16.3749 22.4706 26.5295 10.214 26.5295V26.5242C6.59339 26.5295 3.04798 25.4924 0 23.5369C0.526469 23.6003 1.05558 23.6319 1.586 23.6333C4.58648 23.6359 7.50119 22.6291 9.86172 20.7753C7.01035 20.7212 4.50995 18.8621 3.63646 16.1479C4.6353 16.3406 5.66449 16.301 6.64485 16.0331C3.53618 15.405 1.29968 12.6737 1.29968 9.50174C1.29968 9.47271 1.29968 9.445 1.29968 9.41729C2.22595 9.9332 3.26305 10.2195 4.32391 10.2512C1.396 8.29442 0.493482 4.39934 2.26157 1.35401C5.64469 5.51694 10.6363 8.04768 15.9946 8.31553C15.4576 6.00118 16.1912 3.57599 17.9224 1.94909C20.6062 -0.57374 24.8272 -0.444432 27.35 2.23805C28.8423 1.94381 30.2726 1.39623 31.5815 0.620381C31.0841 2.16284 30.043 3.47308 28.6523 4.30566C29.9731 4.14996 31.2635 3.79635 32.4788 3.25668C31.5842 4.59726 30.4573 5.765 29.1537 6.70842Z" fill="white" fill-opacity="0.82"/>
</svg>
